<mxfile host="app.diagrams.net" agent="Mozilla/5.0 (X11; Linux x86_64) AppleWebKit/537.36 (KHTML, like Gecko) Chrome/126.0.0.0 Safari/537.36" version="24.7.16">
  <diagram id="R2lEEEUBdFMjLlhIrx00" name="Page-1">
    <mxGraphModel dx="794" dy="724" grid="1" gridSize="10" guides="1" tooltips="1" connect="1" arrows="1" fold="1" page="1" pageScale="1" pageWidth="850" pageHeight="1100" math="0" shadow="0" extFonts="Permanent Marker^https://fonts.googleapis.com/css?family=Permanent+Marker">
      <root>
        <mxCell id="0" />
        <mxCell id="1" parent="0" />
        <mxCell id="0d2nktneiDjZBYRKHVjC-1" value="Empleado" style="rounded=0;whiteSpace=wrap;html=1;" vertex="1" parent="1">
          <mxGeometry x="470" y="160" width="80" height="50" as="geometry" />
        </mxCell>
        <mxCell id="0d2nktneiDjZBYRKHVjC-5" value="&lt;span style=&quot;background-color: rgb(0, 0, 0);&quot;&gt;id_E&lt;/span&gt;" style="ellipse;whiteSpace=wrap;html=1;aspect=fixed;strokeColor=#000000;fillColor=#000000;" vertex="1" parent="1">
          <mxGeometry x="470" y="80" width="40" height="40" as="geometry" />
        </mxCell>
        <mxCell id="0d2nktneiDjZBYRKHVjC-6" value="Departamento" style="rounded=0;whiteSpace=wrap;html=1;" vertex="1" parent="1">
          <mxGeometry x="465" y="570" width="100" height="40" as="geometry" />
        </mxCell>
        <mxCell id="0d2nktneiDjZBYRKHVjC-10" value="Nombre" style="ellipse;whiteSpace=wrap;html=1;aspect=fixed;" vertex="1" parent="1">
          <mxGeometry x="360" y="102" width="45" height="45" as="geometry" />
        </mxCell>
        <mxCell id="0d2nktneiDjZBYRKHVjC-12" value="Telefono" style="ellipse;whiteSpace=wrap;html=1;aspect=fixed;" vertex="1" parent="1">
          <mxGeometry x="290" y="122.25" width="47.75" height="47.75" as="geometry" />
        </mxCell>
        <mxCell id="0d2nktneiDjZBYRKHVjC-14" value="Salario" style="ellipse;whiteSpace=wrap;html=1;aspect=fixed;" vertex="1" parent="1">
          <mxGeometry x="400" y="62" width="40" height="40" as="geometry" />
        </mxCell>
        <mxCell id="0d2nktneiDjZBYRKHVjC-15" value="Pertenece" style="rhombus;whiteSpace=wrap;html=1;" vertex="1" parent="1">
          <mxGeometry x="442.5" y="370" width="140" height="80" as="geometry" />
        </mxCell>
        <mxCell id="0d2nktneiDjZBYRKHVjC-21" value="Id_Empleado" style="text;html=1;align=center;verticalAlign=middle;resizable=0;points=[];autosize=1;strokeColor=none;fillColor=none;" vertex="1" parent="1">
          <mxGeometry x="445" y="40" width="90" height="30" as="geometry" />
        </mxCell>
        <mxCell id="0d2nktneiDjZBYRKHVjC-23" value="" style="endArrow=none;html=1;rounded=0;entryX=0.5;entryY=1;entryDx=0;entryDy=0;exitX=0.863;exitY=0.04;exitDx=0;exitDy=0;exitPerimeter=0;" edge="1" parent="1" source="0d2nktneiDjZBYRKHVjC-1" target="0d2nktneiDjZBYRKHVjC-28">
          <mxGeometry width="50" height="50" relative="1" as="geometry">
            <mxPoint x="170" y="370" as="sourcePoint" />
            <mxPoint x="220" y="320" as="targetPoint" />
          </mxGeometry>
        </mxCell>
        <mxCell id="0d2nktneiDjZBYRKHVjC-24" value="" style="endArrow=none;html=1;rounded=0;entryX=0.5;entryY=1;entryDx=0;entryDy=0;exitX=0.25;exitY=0;exitDx=0;exitDy=0;" edge="1" parent="1" source="0d2nktneiDjZBYRKHVjC-1" target="0d2nktneiDjZBYRKHVjC-5">
          <mxGeometry width="50" height="50" relative="1" as="geometry">
            <mxPoint x="140" y="360" as="sourcePoint" />
            <mxPoint x="190" y="310" as="targetPoint" />
          </mxGeometry>
        </mxCell>
        <mxCell id="0d2nktneiDjZBYRKHVjC-25" value="" style="endArrow=none;html=1;rounded=0;exitX=1;exitY=0.5;exitDx=0;exitDy=0;entryX=0;entryY=0;entryDx=0;entryDy=0;" edge="1" parent="1" source="0d2nktneiDjZBYRKHVjC-14" target="0d2nktneiDjZBYRKHVjC-1">
          <mxGeometry width="50" height="50" relative="1" as="geometry">
            <mxPoint x="230" y="440" as="sourcePoint" />
            <mxPoint x="280" y="390" as="targetPoint" />
          </mxGeometry>
        </mxCell>
        <mxCell id="0d2nktneiDjZBYRKHVjC-26" value="" style="endArrow=none;html=1;rounded=0;exitX=1;exitY=0.5;exitDx=0;exitDy=0;entryX=0;entryY=0.5;entryDx=0;entryDy=0;" edge="1" parent="1" source="0d2nktneiDjZBYRKHVjC-10" target="0d2nktneiDjZBYRKHVjC-1">
          <mxGeometry width="50" height="50" relative="1" as="geometry">
            <mxPoint x="125" y="410" as="sourcePoint" />
            <mxPoint x="175" y="360" as="targetPoint" />
          </mxGeometry>
        </mxCell>
        <mxCell id="0d2nktneiDjZBYRKHVjC-27" value="" style="endArrow=none;html=1;rounded=0;exitX=1;exitY=0.5;exitDx=0;exitDy=0;entryX=0;entryY=0.5;entryDx=0;entryDy=0;" edge="1" parent="1" source="0d2nktneiDjZBYRKHVjC-12" target="0d2nktneiDjZBYRKHVjC-1">
          <mxGeometry width="50" height="50" relative="1" as="geometry">
            <mxPoint x="145" y="450" as="sourcePoint" />
            <mxPoint x="195" y="400" as="targetPoint" />
          </mxGeometry>
        </mxCell>
        <mxCell id="0d2nktneiDjZBYRKHVjC-28" value="" style="shape=lineEllipse;line=vertical;perimeter=ellipsePerimeter;whiteSpace=wrap;html=1;backgroundOutline=1;" vertex="1" parent="1">
          <mxGeometry x="670" y="60" width="40" height="42" as="geometry" />
        </mxCell>
        <mxCell id="0d2nktneiDjZBYRKHVjC-30" value="DNI_E" style="text;html=1;align=center;verticalAlign=middle;resizable=0;points=[];autosize=1;strokeColor=none;fillColor=none;" vertex="1" parent="1">
          <mxGeometry x="660" y="30" width="60" height="30" as="geometry" />
        </mxCell>
        <mxCell id="0d2nktneiDjZBYRKHVjC-32" value="" style="ellipse;whiteSpace=wrap;html=1;aspect=fixed;fillColor=#000000;" vertex="1" parent="1">
          <mxGeometry x="410" y="620" width="40" height="40" as="geometry" />
        </mxCell>
        <mxCell id="0d2nktneiDjZBYRKHVjC-33" value="" style="endArrow=none;html=1;rounded=0;entryX=0.5;entryY=1;entryDx=0;entryDy=0;exitX=0;exitY=1;exitDx=0;exitDy=0;" edge="1" parent="1" source="0d2nktneiDjZBYRKHVjC-6" target="0d2nktneiDjZBYRKHVjC-32">
          <mxGeometry width="50" height="50" relative="1" as="geometry">
            <mxPoint x="590" y="380" as="sourcePoint" />
            <mxPoint x="640" y="330" as="targetPoint" />
          </mxGeometry>
        </mxCell>
        <mxCell id="0d2nktneiDjZBYRKHVjC-34" value="Codigo_D" style="text;html=1;align=center;verticalAlign=middle;resizable=0;points=[];autosize=1;strokeColor=none;fillColor=none;" vertex="1" parent="1">
          <mxGeometry x="380" y="660" width="80" height="30" as="geometry" />
        </mxCell>
        <mxCell id="0d2nktneiDjZBYRKHVjC-37" value="" style="endArrow=none;html=1;rounded=0;exitX=0.5;exitY=0;exitDx=0;exitDy=0;entryX=0.5;entryY=1;entryDx=0;entryDy=0;" edge="1" parent="1" source="0d2nktneiDjZBYRKHVjC-6" target="0d2nktneiDjZBYRKHVjC-15">
          <mxGeometry width="50" height="50" relative="1" as="geometry">
            <mxPoint x="500" y="550" as="sourcePoint" />
            <mxPoint x="550" y="500" as="targetPoint" />
          </mxGeometry>
        </mxCell>
        <mxCell id="0d2nktneiDjZBYRKHVjC-41" value="Es jefe" style="rhombus;whiteSpace=wrap;html=1;" vertex="1" parent="1">
          <mxGeometry x="700" y="170" width="80" height="76.13" as="geometry" />
        </mxCell>
        <mxCell id="0d2nktneiDjZBYRKHVjC-46" value="" style="endArrow=none;html=1;rounded=0;exitX=1;exitY=0.25;exitDx=0;exitDy=0;entryX=0.5;entryY=0;entryDx=0;entryDy=0;" edge="1" parent="1" source="0d2nktneiDjZBYRKHVjC-1" target="0d2nktneiDjZBYRKHVjC-41">
          <mxGeometry width="50" height="50" relative="1" as="geometry">
            <mxPoint x="570" y="215" as="sourcePoint" />
            <mxPoint x="620" y="165" as="targetPoint" />
          </mxGeometry>
        </mxCell>
        <mxCell id="0d2nktneiDjZBYRKHVjC-50" value="(1,n)" style="text;html=1;align=center;verticalAlign=middle;resizable=0;points=[];autosize=1;strokeColor=none;fillColor=none;" vertex="1" parent="1">
          <mxGeometry x="580" y="150" width="50" height="30" as="geometry" />
        </mxCell>
        <mxCell id="0d2nktneiDjZBYRKHVjC-51" value="(0,n)" style="text;html=1;align=center;verticalAlign=middle;resizable=0;points=[];autosize=1;strokeColor=none;fillColor=none;" vertex="1" parent="1">
          <mxGeometry x="550" y="258" width="50" height="30" as="geometry" />
        </mxCell>
        <mxCell id="0d2nktneiDjZBYRKHVjC-52" value="tiene como jefe" style="text;html=1;align=center;verticalAlign=middle;resizable=0;points=[];autosize=1;strokeColor=none;fillColor=none;" vertex="1" parent="1">
          <mxGeometry x="630" y="150" width="100" height="30" as="geometry" />
        </mxCell>
        <mxCell id="0d2nktneiDjZBYRKHVjC-53" value="es jefe" style="text;html=1;align=center;verticalAlign=middle;resizable=0;points=[];autosize=1;strokeColor=none;fillColor=none;" vertex="1" parent="1">
          <mxGeometry x="560" y="288" width="60" height="30" as="geometry" />
        </mxCell>
        <mxCell id="0d2nktneiDjZBYRKHVjC-54" value="" style="shape=or;whiteSpace=wrap;html=1;fillColor=#000000;" vertex="1" parent="1">
          <mxGeometry x="690" y="60" width="20" height="42" as="geometry" />
        </mxCell>
        <mxCell id="0d2nktneiDjZBYRKHVjC-55" value="" style="endArrow=none;html=1;rounded=0;entryX=0.5;entryY=1;entryDx=0;entryDy=0;exitX=0.5;exitY=0;exitDx=0;exitDy=0;" edge="1" parent="1" source="0d2nktneiDjZBYRKHVjC-56" target="0d2nktneiDjZBYRKHVjC-6">
          <mxGeometry width="50" height="50" relative="1" as="geometry">
            <mxPoint x="530" y="670" as="sourcePoint" />
            <mxPoint x="570" y="640" as="targetPoint" />
          </mxGeometry>
        </mxCell>
        <mxCell id="0d2nktneiDjZBYRKHVjC-56" value="Nombre" style="ellipse;whiteSpace=wrap;html=1;aspect=fixed;" vertex="1" parent="1">
          <mxGeometry x="480" y="630" width="50" height="50" as="geometry" />
        </mxCell>
        <mxCell id="0d2nktneiDjZBYRKHVjC-57" value="" style="endArrow=classic;html=1;rounded=0;exitX=0.5;exitY=0;exitDx=0;exitDy=0;entryX=0.5;entryY=1;entryDx=0;entryDy=0;" edge="1" parent="1" source="0d2nktneiDjZBYRKHVjC-15" target="0d2nktneiDjZBYRKHVjC-1">
          <mxGeometry width="50" height="50" relative="1" as="geometry">
            <mxPoint x="405" y="338" as="sourcePoint" />
            <mxPoint x="455" y="288" as="targetPoint" />
          </mxGeometry>
        </mxCell>
        <mxCell id="0d2nktneiDjZBYRKHVjC-58" value="" style="endArrow=none;html=1;rounded=0;exitX=1;exitY=1;exitDx=0;exitDy=0;" edge="1" parent="1" source="0d2nktneiDjZBYRKHVjC-6" target="0d2nktneiDjZBYRKHVjC-59">
          <mxGeometry width="50" height="50" relative="1" as="geometry">
            <mxPoint x="590" y="680" as="sourcePoint" />
            <mxPoint x="600" y="640" as="targetPoint" />
          </mxGeometry>
        </mxCell>
        <mxCell id="0d2nktneiDjZBYRKHVjC-59" value="Localizacion" style="ellipse;whiteSpace=wrap;html=1;aspect=fixed;" vertex="1" parent="1">
          <mxGeometry x="575" y="630" width="60" height="60" as="geometry" />
        </mxCell>
        <mxCell id="0d2nktneiDjZBYRKHVjC-61" value="(1,1)" style="text;html=1;align=center;verticalAlign=middle;resizable=0;points=[];autosize=1;strokeColor=none;fillColor=none;" vertex="1" parent="1">
          <mxGeometry x="465" y="548" width="50" height="30" as="geometry" />
        </mxCell>
        <mxCell id="0d2nktneiDjZBYRKHVjC-62" value="(1,n)" style="text;html=1;align=center;verticalAlign=middle;resizable=0;points=[];autosize=1;strokeColor=none;fillColor=none;" vertex="1" parent="1">
          <mxGeometry x="455" y="208" width="50" height="30" as="geometry" />
        </mxCell>
        <mxCell id="0d2nktneiDjZBYRKHVjC-64" value="1,N" style="text;html=1;align=center;verticalAlign=middle;resizable=0;points=[];autosize=1;strokeColor=none;fillColor=none;" vertex="1" parent="1">
          <mxGeometry x="590" y="395" width="40" height="30" as="geometry" />
        </mxCell>
        <mxCell id="0d2nktneiDjZBYRKHVjC-66" value="" style="endArrow=none;html=1;rounded=0;entryX=0.5;entryY=1;entryDx=0;entryDy=0;" edge="1" parent="1" target="0d2nktneiDjZBYRKHVjC-41">
          <mxGeometry width="50" height="50" relative="1" as="geometry">
            <mxPoint x="740" y="290" as="sourcePoint" />
            <mxPoint x="740" y="258" as="targetPoint" />
          </mxGeometry>
        </mxCell>
        <mxCell id="0d2nktneiDjZBYRKHVjC-67" value="" style="endArrow=none;html=1;rounded=0;" edge="1" parent="1">
          <mxGeometry width="50" height="50" relative="1" as="geometry">
            <mxPoint x="540" y="290" as="sourcePoint" />
            <mxPoint x="740" y="288" as="targetPoint" />
          </mxGeometry>
        </mxCell>
        <mxCell id="0d2nktneiDjZBYRKHVjC-68" value="" style="endArrow=classic;html=1;rounded=0;entryX=0.9;entryY=1;entryDx=0;entryDy=0;entryPerimeter=0;" edge="1" parent="1" target="0d2nktneiDjZBYRKHVjC-1">
          <mxGeometry width="50" height="50" relative="1" as="geometry">
            <mxPoint x="542" y="290" as="sourcePoint" />
            <mxPoint x="590" y="230" as="targetPoint" />
          </mxGeometry>
        </mxCell>
        <mxCell id="0d2nktneiDjZBYRKHVjC-72" value="" style="endArrow=none;html=1;rounded=0;exitX=0;exitY=0.5;exitDx=0;exitDy=0;entryX=0.5;entryY=1;entryDx=0;entryDy=0;" edge="1" parent="1" source="0d2nktneiDjZBYRKHVjC-6" target="0d2nktneiDjZBYRKHVjC-73">
          <mxGeometry width="50" height="50" relative="1" as="geometry">
            <mxPoint x="355" y="588" as="sourcePoint" />
            <mxPoint x="290" y="430" as="targetPoint" />
            <Array as="points">
              <mxPoint x="290" y="590" />
            </Array>
          </mxGeometry>
        </mxCell>
        <mxCell id="0d2nktneiDjZBYRKHVjC-73" value="jefe" style="rhombus;whiteSpace=wrap;html=1;" vertex="1" parent="1">
          <mxGeometry x="230" y="370" width="120" height="80" as="geometry" />
        </mxCell>
        <mxCell id="0d2nktneiDjZBYRKHVjC-75" value="" style="endArrow=classic;html=1;rounded=0;exitX=0;exitY=0.5;exitDx=0;exitDy=0;entryX=1;entryY=0.5;entryDx=0;entryDy=0;" edge="1" parent="1" source="0d2nktneiDjZBYRKHVjC-15" target="0d2nktneiDjZBYRKHVjC-73">
          <mxGeometry width="50" height="50" relative="1" as="geometry">
            <mxPoint x="590" y="400" as="sourcePoint" />
            <mxPoint x="640" y="350" as="targetPoint" />
          </mxGeometry>
        </mxCell>
        <mxCell id="0d2nktneiDjZBYRKHVjC-78" value="" style="endArrow=none;html=1;rounded=0;entryX=0;entryY=0.75;entryDx=0;entryDy=0;exitX=0.5;exitY=0;exitDx=0;exitDy=0;" edge="1" parent="1" source="0d2nktneiDjZBYRKHVjC-73" target="0d2nktneiDjZBYRKHVjC-1">
          <mxGeometry width="50" height="50" relative="1" as="geometry">
            <mxPoint x="355" y="270" as="sourcePoint" />
            <mxPoint x="405" y="220" as="targetPoint" />
            <Array as="points">
              <mxPoint x="290" y="198" />
            </Array>
          </mxGeometry>
        </mxCell>
        <mxCell id="0d2nktneiDjZBYRKHVjC-79" value="0,1" style="text;html=1;align=center;verticalAlign=middle;resizable=0;points=[];autosize=1;strokeColor=none;fillColor=none;" vertex="1" parent="1">
          <mxGeometry x="220" y="358" width="40" height="30" as="geometry" />
        </mxCell>
      </root>
    </mxGraphModel>
  </diagram>
</mxfile>
